P2
# CREATOR: GIMP PNM Filter Version 1.1
15 15
255
255
255
255
255
255
255
0
0
0
0
0
255
255
255
255
255
255
255
0
0
0
234
0
234
0
0
0
0
255
255
255
0
255
0
0
0
0
255
255
255
255
255
0
0
255
255
0
255
0
234
0
234
0
234
0
255
0
0
0
255
0
0
0
0
0
0
0
0
0
0
255
0
0
0
255
0
0
255
255
255
255
255
255
234
0
234
0
234
0
255
0
0
255
0
0
255
0
255
255
255
255
0
0
0
255
0
0
255
255
46
0
255
255
255
0
255
255
46
0
255
0
0
255
255
255
255
255
255
255
255
255
0
0
0
255
0
0
255
255
234
255
255
255
255
255
255
0
234
0
255
0
0
0
0
255
255
255
255
255
0
255
0
0
0
255
255
0
0
0
234
0
234
0
234
255
255
0
0
0
255
255
0
0
0
0
0
0
0
0
0
0
0
0
0
255
255
255
234
0
0
0
234
0
234
0
0
0
255
255
255
255
255
255
255
255
255
255
255
255
255
255
255
255
255
255
